PathFileType	4	(X/Y/Z)	Patient4_TMGait_0pt5_02_right_39.trc.trc
DataRate	CameraRate	NumFrames	NumMarkers	Units	OrigDataRate	OrigDataStartFrame	OrigNumFrames
76.923076923077	76.923076923077	5	33	mm	76.923076923077	106	       141
Frame#	Time	Sacral			L.Shoulder			Chest			R.Shoulder			Neck			R.ASIS			L.ASIS			R.Thigh.Superior			R.Thigh.Lateral			R.Thigh.Inferior			R.Patella			L.Thigh.Superior			L.Thigh.Lateral			L.Thigh.Inferior			L.Patella			L.Shank.Superior			L.Shank.Lateral			L.Shank.Inferior			R.Shank.Superior			R.Shank.Lateral			R.Shank.Inferior			R.Heel			R.Midfoot.Superior			R.Midfoot.Lateral			R.Toe			L.Heel			L.Midfoot.Lateral			L.Midfoot.Superior			L.Toe			L.Elbow			L.Wrist			R.Elbow			R.Wrist			
		X1	Y1	Z1	X2	Y2	Z2	X3	Y3	Z3	X4	Y4	Z4	X5	Y5	Z5	X6	Y6	Z6	X7	Y7	Z7	X8	Y8	Z8	X9	Y9	Z9	X10	Y10	Z10	X11	Y11	Z11	X12	Y12	Z12	X13	Y13	Z13	X14	Y14	Z14	X15	Y15	Z15	X16	Y16	Z16	X17	Y17	Z17	X18	Y18	Z18	X19	Y19	Z19	X20	Y20	Z20	X21	Y21	Z21	X22	Y22	Z22	X23	Y23	Z23	X24	Y24	Z24	X25	Y25	Z25	X26	Y26	Z26	X27	Y27	Z27	X28	Y28	Z28	X29	Y29	Z29	X30	Y30	Z30	X31	Y31	Z31	X32	Y32	Z32	X33	Y33	Z33	

106	52.325000000000	705.148263696273	1015.777084310419	422.444302781614	912.072790439086	1438.933887821366	248.896137222945	1001.405238230347	1362.249015848538	415.147644833582	910.648731721251	1438.291360020553	585.539527166822	906.594905516449	1498.986636396044	399.829626267087	925.554850722899	952.388160508335	550.891822673230	930.607180254569	964.146365507306	274.965409631984	1018.527389635256	794.941845724421	522.675517620860	988.765051988995	673.931851574934	598.707566276080	1080.549652718089	640.410787972483	519.381902586398	1113.057747245003	535.049599532346	544.098529194820	965.235224815532	748.004902447360	314.334187375337	873.227777456120	635.536986196469	255.191530776165	948.402810945600	555.349533748989	326.085740404868	944.052162730133	485.077765940009	338.127086127386	914.350197569257	414.918989560875	329.275478687965	822.280026616217	303.354719387042	278.660471708299	864.725476283102	192.220497712153	354.303675163893	1055.394699102658	448.948246546755	552.770312262216	950.452308653621	379.155668366253	613.721771374768	965.677712172427	269.787676203175	567.399319247784	788.809864575873	165.687572892168	540.795674838333	964.226020316261	137.494890012110	579.652196446031	857.653569416715	119.462454323690	615.389058565884	1047.512147831649	39.545047972294	609.349916493521	729.263652526462	38.909836559690	395.534452672665	804.189909610127	35.672699561404	315.582132793914	887.665315759876	96.115406624786	343.075286706458	1016.340340527312	40.795270097995	315.599993792984	932.012577956835	1097.758924415124	99.972034068796	1142.462429696473	942.871401462369	105.417161104851	871.540189729498	1088.734790020455	695.838309380124	956.759235723811	840.382521802802	691.311652803560	
107	52.338000000000	703.980740618806	1016.179988778066	421.689795380575	913.730502367907	1438.951050570976	249.232003117978	1001.386165729413	1361.765244212260	416.187294869738	909.460321559051	1438.037306328650	585.899854089138	907.144800782399	1498.905642165768	400.209577988568	923.679601042168	952.812380218056	551.450300806173	930.050089058273	963.968999630176	275.232544711385	1016.504619525539	795.812700471897	523.001081785837	986.975653660834	674.659106042057	599.213581398085	1078.274918142464	641.075352369823	519.656081998104	1112.182923033109	538.059925298833	544.326882474591	962.600472932489	747.171540387352	314.997184597174	869.800679103675	635.411960355772	255.196433883901	943.892755107390	554.666285608659	326.402888545145	938.824496273727	484.478035751165	338.428062192757	909.089993015619	414.496917276973	329.461190402784	816.807066484104	303.233032918943	278.627357092202	858.593575221338	192.015046329827	354.494147669318	1059.271355710699	450.551861521728	553.456322513384	960.013479892392	374.577090602899	616.082575176114	981.334136729603	266.394060342096	569.188865585347	811.367201683359	150.730194309792	545.072074773276	988.549146565843	134.644972287080	581.202025833782	884.264217754435	109.347758854490	618.594321014725	1078.837562404135	42.802208612071	609.538119991065	722.748796264440	38.899158899153	395.477100973073	797.649414841362	35.645706291409	315.571371842542	881.142510497014	96.094256143454	343.108567294522	1009.805945007746	40.783885478713	315.605165470874	937.740412021490	1099.415834427027	98.461705353897	1155.139826767986	954.882592797813	104.221969782047	859.214092629507	1090.574765179794	697.124443129678	930.865839037845	837.886399455877	694.828502395346	
108	52.351000000000	702.926086868208	1016.530108694897	421.078094950360	915.337297138563	1438.877003098128	249.718761723428	1001.404989218894	1361.221076596166	417.320767806496	908.379740884207	1437.742922206749	586.344039720287	907.723193574959	1498.747380375581	400.721586377335	921.925022658695	953.026489843811	552.032996564553	929.384850027289	963.657983856747	275.654596413799	1014.172827707378	795.973970249347	523.551830065287	984.347440869010	674.790625564131	599.930173937921	1075.117451525935	640.873016345954	520.187300303276	1110.191534019057	540.416616929351	544.688611205256	960.034256843016	746.297985526335	315.713071623367	866.408603330063	635.255643811668	255.266915783788	939.390697640052	553.948287796856	326.758414651777	933.589690336439	483.870733921600	338.777055158071	903.835699316830	414.052504370026	329.692105124123	811.342763702057	303.090359446145	278.627242673590	852.470360933482	191.790540489679	354.717639771469	1062.280869509309	451.850997045044	554.311401608552	969.310622099059	369.870007722576	618.676709857303	996.883019785784	263.316088458098	571.112312082937	834.944010972848	136.159998644236	549.385613422660	1013.015663731433	132.646566847002	582.890125695713	911.605825906483	99.998185434539	621.824717641084	1110.023606404909	47.522938793651	609.801632793760	716.232187246500	38.875970122162	395.421789869214	791.104640483707	35.616045554863	315.565909251451	874.611799060684	96.069535316615	343.161927177139	1003.263058711660	40.785527150147	315.621886163401	943.300717280925	1101.032908200376	97.163496632953	1167.005626600138	967.038686724874	103.421069810227	846.777390346120	1092.829010136337	698.378716056858	905.662860992578	836.924904411549	697.969307484886	
109	52.364000000000	701.998683524609	1016.816181560401	420.611358942203	916.870028370895	1438.717299160407	250.356833231782	1001.454138610766	1360.628563895528	418.545889939891	907.410092337955	1437.420521155039	586.879051698717	908.312571679570	1498.517415328327	401.361528508145	920.314047780625	953.030784291420	552.664680860609	928.653448282261	963.234651352926	276.229141193658	1011.565548732590	795.420166285005	524.347999437768	980.927293602374	674.338441665443	600.888114444059	1071.165050802769	639.847798019283	521.010092140952	1107.168162094061	542.112602165728	545.213381238286	957.542336292242	745.377841001037	316.475834288817	863.053516218465	635.075728145301	255.396749134729	934.883486067025	553.192356615664	327.148619714400	928.334664919214	483.258888070121	339.164632234777	898.575991922164	413.594921120417	329.958837156429	805.874944943391	302.930832539233	278.655050568424	846.345881151088	191.551135579497	354.963714897585	1064.411443833779	452.870317387982	555.351025062519	978.166045470192	365.179382082334	621.394750753614	1012.065412000771	260.693027064590	573.099453016991	859.165921762134	122.354811848531	553.478500742844	1037.192366703920	131.627905910955	584.658799520976	939.174174953185	91.666997402170	624.897036411413	1140.484037423172	53.722675594779	610.170088580228	709.708206844624	38.843294723865	395.371249896668	784.554669738888	35.585289052714	315.564978166810	868.071290721715	96.040378974587	343.232662698514	996.710015160920	40.798126698722	315.650286863754	948.681196527428	1102.599464824356	96.084009782639	1178.022803560272	979.233363634754	103.021839070136	834.312981459143	1095.493765964961	699.544683141379	881.262785500628	837.297953604660	700.762209607810	
110	52.377000000000	701.217619428049	1017.021791983737	420.294757104372	918.305785690288	1438.480237888829	251.144970955368	1001.522603942981	1360.003417277300	419.861881927070	906.547447251240	1437.084135968501	587.515721926797	908.889802684453	1498.223446018706	402.125771677492	918.868701168769	952.834540326785	553.373157407382	927.912887450841	962.723342100315	276.954232221009	1008.731674573184	794.181001344040	525.404528157027	976.813261783279	673.341295000376	602.105760339677	1066.554286038015	638.083682032464	522.144052237736	1103.245994182755	543.162560339843	545.927315627868	955.132345548002	744.406262943381	317.291139312806	859.745504783534	634.880942495316	255.581615219098	930.364662170889	552.397664456817	327.575719777918	923.053837082811	482.645481763759	339.583797687616	893.304188042024	413.133568501149	330.253698169764	800.395842805209	302.761127763804	278.706034817279	840.212214277988	191.302175054380	355.221387201496	1065.678436284968	453.627474930389	556.580288792231	986.374504247431	360.624528646415	624.108321289876	1026.583066853473	258.604542817765	575.075032212850	883.521155885418	109.638735468707	557.091777897914	1060.579892833272	131.609678712311	586.448427539741	966.346659235889	84.511519907382	627.631677387468	1169.583017998497	61.246702439670	610.682949479295	703.173015909650	38.806250053601	395.327922206737	777.999295972927	35.555412741345	315.567652334540	861.520656278649	96.006935300819	343.316663662811	990.146346099001	40.818842612739	315.690107972546	953.861484780879	1104.104938782590	95.233491117879	1188.161113033603	991.354280822941	103.027589438512	821.931450380275	1098.550300507102	700.572605695000	857.766461512775	838.803475676927	703.228028605356	
